<svg width="217" height="56" viewBox="0 0 217 56" fill="none" xmlns="http://www.w3.org/2000/svg">
<path d="M2.625 8H9.375V38.1875L8.69531 44H2.625V8ZM25.4297 31.0625V31.5547C25.4297 33.4453 25.2266 35.1797 24.8203 36.7578C24.4297 38.3359 23.8203 39.7031 22.9922 40.8594C22.1641 42 21.1328 42.8906 19.8984 43.5312C18.6797 44.1562 17.2422 44.4688 15.5859 44.4688C14.0391 44.4688 12.6953 44.1562 11.5547 43.5312C10.4297 42.9062 9.48438 42.0234 8.71875 40.8828C7.95312 39.7422 7.33594 38.4062 6.86719 36.875C6.39844 35.3438 6.04688 33.6719 5.8125 31.8594V30.7812C6.04688 28.9688 6.39844 27.2969 6.86719 25.7656C7.33594 24.2344 7.95312 22.8984 8.71875 21.7578C9.48438 20.6172 10.4297 19.7344 11.5547 19.1094C12.6797 18.4844 14.0078 18.1719 15.5391 18.1719C17.2109 18.1719 18.6641 18.4922 19.8984 19.1328C21.1484 19.7578 22.1797 20.6484 22.9922 21.8047C23.8203 22.9453 24.4297 24.3047 24.8203 25.8828C25.2266 27.4453 25.4297 29.1719 25.4297 31.0625ZM18.6797 31.5547V31.0625C18.6797 30.0312 18.6016 29.0625 18.4453 28.1562C18.3047 27.2344 18.0547 26.4297 17.6953 25.7422C17.3359 25.0391 16.8438 24.4844 16.2188 24.0781C15.6094 23.6719 14.8203 23.4688 13.8516 23.4688C12.9297 23.4688 12.1484 23.625 11.5078 23.9375C10.8672 24.25 10.3359 24.6875 9.91406 25.25C9.50781 25.8125 9.20312 26.4844 9 27.2656C8.79688 28.0312 8.67188 28.875 8.625 29.7969V32.8672C8.67188 34.1016 8.875 35.1953 9.23438 36.1484C9.60938 37.0859 10.1719 37.8281 10.9219 38.375C11.6875 38.9062 12.6797 39.1719 13.8984 39.1719C14.8516 39.1719 15.6406 38.9844 16.2656 38.6094C16.8906 38.2344 17.375 37.7031 17.7188 37.0156C18.0781 36.3281 18.3281 35.5234 18.4688 34.6016C18.6094 33.6641 18.6797 32.6484 18.6797 31.5547ZM36.375 23.5156V53.75H29.625V18.6406H35.8828L36.375 23.5156ZM52.4297 31.0391V31.5312C52.4297 33.375 52.2109 35.0859 51.7734 36.6641C51.3516 38.2422 50.7266 39.6172 49.8984 40.7891C49.0703 41.9453 48.0391 42.8516 46.8047 43.5078C45.5859 44.1484 44.1797 44.4688 42.5859 44.4688C41.0391 44.4688 39.6953 44.1562 38.5547 43.5312C37.4141 42.9062 36.4531 42.0312 35.6719 40.9062C34.9062 39.7656 34.2891 38.4453 33.8203 36.9453C33.3516 35.4453 32.9922 33.8359 32.7422 32.1172V30.8281C32.9922 28.9844 33.3516 27.2969 33.8203 25.7656C34.2891 24.2188 34.9062 22.8828 35.6719 21.7578C36.4531 20.6172 37.4062 19.7344 38.5312 19.1094C39.6719 18.4844 41.0078 18.1719 42.5391 18.1719C44.1484 18.1719 45.5625 18.4766 46.7812 19.0859C48.0156 19.6953 49.0469 20.5703 49.875 21.7109C50.7188 22.8516 51.3516 24.2109 51.7734 25.7891C52.2109 27.3672 52.4297 29.1172 52.4297 31.0391ZM45.6562 31.5312V31.0391C45.6562 29.9609 45.5625 28.9688 45.375 28.0625C45.2031 27.1406 44.9219 26.3359 44.5312 25.6484C44.1562 24.9609 43.6562 24.4297 43.0312 24.0547C42.4219 23.6641 41.6797 23.4688 40.8047 23.4688C39.8828 23.4688 39.0938 23.6172 38.4375 23.9141C37.7969 24.2109 37.2734 24.6406 36.8672 25.2031C36.4609 25.7656 36.1562 26.4375 35.9531 27.2188C35.75 28 35.625 28.8828 35.5781 29.8672V33.125C35.6562 34.2812 35.875 35.3203 36.2344 36.2422C36.5938 37.1484 37.1484 37.8672 37.8984 38.3984C38.6484 38.9297 39.6328 39.1953 40.8516 39.1953C41.7422 39.1953 42.4922 39 43.1016 38.6094C43.7109 38.2031 44.2031 37.6484 44.5781 36.9453C44.9688 36.2422 45.2422 35.4297 45.3984 34.5078C45.5703 33.5859 45.6562 32.5938 45.6562 31.5312ZM63.375 23.8906V44H56.6016V18.6406H62.9531L63.375 23.8906ZM62.4375 30.4297H60.5625C60.5625 28.6641 60.7734 27.0391 61.1953 25.5547C61.6328 24.0547 62.2656 22.7578 63.0938 21.6641C63.9375 20.5547 64.9766 19.6953 66.2109 19.0859C67.4453 18.4766 68.875 18.1719 70.5 18.1719C71.625 18.1719 72.6562 18.3438 73.5938 18.6875C74.5312 19.0156 75.3359 19.5391 76.0078 20.2578C76.6953 20.9609 77.2266 21.8828 77.6016 23.0234C77.9766 24.1484 78.1641 25.5 78.1641 27.0781V44H71.4141V27.8281C71.4141 26.6719 71.2578 25.7812 70.9453 25.1562C70.6328 24.5312 70.1875 24.0938 69.6094 23.8438C69.0469 23.5938 68.3672 23.4688 67.5703 23.4688C66.6953 23.4688 65.9297 23.6484 65.2734 24.0078C64.6328 24.3672 64.1016 24.8672 63.6797 25.5078C63.2578 26.1328 62.9453 26.8672 62.7422 27.7109C62.5391 28.5547 62.4375 29.4609 62.4375 30.4297ZM77.5312 29.6562L75.1172 29.9609C75.1172 28.3047 75.3203 26.7656 75.7266 25.3438C76.1484 23.9219 76.7656 22.6719 77.5781 21.5938C78.4062 20.5156 79.4297 19.6797 80.6484 19.0859C81.8672 18.4766 83.2734 18.1719 84.8672 18.1719C86.0859 18.1719 87.1953 18.3516 88.1953 18.7109C89.1953 19.0547 90.0469 19.6094 90.75 20.375C91.4688 21.125 92.0156 22.1094 92.3906 23.3281C92.7812 24.5469 92.9766 26.0391 92.9766 27.8047V44H86.2031V27.8047C86.2031 26.6328 86.0469 25.7422 85.7344 25.1328C85.4375 24.5078 85 24.0781 84.4219 23.8438C83.8594 23.5938 83.1875 23.4688 82.4062 23.4688C81.5938 23.4688 80.8828 23.6328 80.2734 23.9609C79.6641 24.2734 79.1562 24.7109 78.75 25.2734C78.3438 25.8359 78.0391 26.4922 77.8359 27.2422C77.6328 27.9766 77.5312 28.7812 77.5312 29.6562ZM105.328 18.6406V44H98.5547V18.6406H105.328ZM98.1328 12.0312C98.1328 11.0469 98.4766 10.2344 99.1641 9.59375C99.8516 8.95313 100.773 8.63281 101.93 8.63281C103.07 8.63281 103.984 8.95313 104.672 9.59375C105.375 10.2344 105.727 11.0469 105.727 12.0312C105.727 13.0156 105.375 13.8281 104.672 14.4688C103.984 15.1094 103.07 15.4297 101.93 15.4297C100.773 15.4297 99.8516 15.1094 99.1641 14.4688C98.4766 13.8281 98.1328 13.0156 98.1328 12.0312ZM117.516 24.0547V44H110.766V18.6406H117.094L117.516 24.0547ZM116.531 30.4297H114.703C114.703 28.5547 114.945 26.8672 115.43 25.3672C115.914 23.8516 116.594 22.5625 117.469 21.5C118.344 20.4219 119.383 19.6016 120.586 19.0391C121.805 18.4609 123.164 18.1719 124.664 18.1719C125.852 18.1719 126.938 18.3438 127.922 18.6875C128.906 19.0312 129.75 19.5781 130.453 20.3281C131.172 21.0781 131.719 22.0703 132.094 23.3047C132.484 24.5391 132.68 26.0469 132.68 27.8281V44H125.883V27.8047C125.883 26.6797 125.727 25.8047 125.414 25.1797C125.102 24.5547 124.641 24.1172 124.031 23.8672C123.438 23.6016 122.703 23.4688 121.828 23.4688C120.922 23.4688 120.133 23.6484 119.461 24.0078C118.805 24.3672 118.258 24.8672 117.82 25.5078C117.398 26.1328 117.078 26.8672 116.859 27.7109C116.641 28.5547 116.531 29.4609 116.531 30.4297ZM144.938 18.6406V44H138.164V18.6406H144.938ZM137.742 12.0312C137.742 11.0469 138.086 10.2344 138.773 9.59375C139.461 8.95313 140.383 8.63281 141.539 8.63281C142.68 8.63281 143.594 8.95313 144.281 9.59375C144.984 10.2344 145.336 11.0469 145.336 12.0312C145.336 13.0156 144.984 13.8281 144.281 14.4688C143.594 15.1094 142.68 15.4297 141.539 15.4297C140.383 15.4297 139.461 15.1094 138.773 14.4688C138.086 13.8281 137.742 13.0156 137.742 12.0312ZM157.125 24.0547V44H150.375V18.6406H156.703L157.125 24.0547ZM156.141 30.4297H154.312C154.312 28.5547 154.555 26.8672 155.039 25.3672C155.523 23.8516 156.203 22.5625 157.078 21.5C157.953 20.4219 158.992 19.6016 160.195 19.0391C161.414 18.4609 162.773 18.1719 164.273 18.1719C165.461 18.1719 166.547 18.3438 167.531 18.6875C168.516 19.0312 169.359 19.5781 170.062 20.3281C170.781 21.0781 171.328 22.0703 171.703 23.3047C172.094 24.5391 172.289 26.0469 172.289 27.8281V44H165.492V27.8047C165.492 26.6797 165.336 25.8047 165.023 25.1797C164.711 24.5547 164.25 24.1172 163.641 23.8672C163.047 23.6016 162.312 23.4688 161.438 23.4688C160.531 23.4688 159.742 23.6484 159.07 24.0078C158.414 24.3672 157.867 24.8672 157.43 25.5078C157.008 26.1328 156.688 26.8672 156.469 27.7109C156.25 28.5547 156.141 29.4609 156.141 30.4297ZM193.477 18.6406H199.594V43.1562C199.594 45.4688 199.078 47.4297 198.047 49.0391C197.031 50.6641 195.609 51.8906 193.781 52.7188C191.953 53.5625 189.828 53.9844 187.406 53.9844C186.344 53.9844 185.219 53.8438 184.031 53.5625C182.859 53.2812 181.734 52.8438 180.656 52.25C179.594 51.6562 178.703 50.9062 177.984 50L180.961 46.0156C181.742 46.9219 182.648 47.625 183.68 48.125C184.711 48.6406 185.852 48.8984 187.102 48.8984C188.32 48.8984 189.352 48.6719 190.195 48.2188C191.039 47.7812 191.688 47.1328 192.141 46.2734C192.594 45.4297 192.82 44.4062 192.82 43.2031V24.5L193.477 18.6406ZM176.414 31.625V31.1328C176.414 29.1953 176.648 27.4375 177.117 25.8594C177.602 24.2656 178.281 22.8984 179.156 21.7578C180.047 20.6172 181.125 19.7344 182.391 19.1094C183.656 18.4844 185.086 18.1719 186.68 18.1719C188.367 18.1719 189.781 18.4844 190.922 19.1094C192.062 19.7344 193 20.625 193.734 21.7812C194.469 22.9219 195.039 24.2734 195.445 25.8359C195.867 27.3828 196.195 29.0781 196.43 30.9219V32C196.195 33.7656 195.844 35.4062 195.375 36.9219C194.906 38.4375 194.289 39.7656 193.523 40.9062C192.758 42.0312 191.805 42.9062 190.664 43.5312C189.539 44.1562 188.195 44.4688 186.633 44.4688C185.07 44.4688 183.656 44.1484 182.391 43.5078C181.141 42.8672 180.07 41.9688 179.18 40.8125C178.289 39.6562 177.602 38.2969 177.117 36.7344C176.648 35.1719 176.414 33.4688 176.414 31.625ZM183.164 31.1328V31.625C183.164 32.6719 183.266 33.6484 183.469 34.5547C183.672 35.4609 183.984 36.2656 184.406 36.9688C184.844 37.6562 185.383 38.1953 186.023 38.5859C186.68 38.9609 187.453 39.1484 188.344 39.1484C189.578 39.1484 190.586 38.8906 191.367 38.375C192.148 37.8438 192.734 37.1172 193.125 36.1953C193.516 35.2734 193.742 34.2109 193.805 33.0078V29.9375C193.773 28.9531 193.641 28.0703 193.406 27.2891C193.172 26.4922 192.844 25.8125 192.422 25.25C192 24.6875 191.453 24.25 190.781 23.9375C190.109 23.625 189.312 23.4688 188.391 23.4688C187.5 23.4688 186.727 23.6719 186.07 24.0781C185.43 24.4688 184.891 25.0078 184.453 25.6953C184.031 26.3828 183.711 27.1953 183.492 28.1328C183.273 29.0547 183.164 30.0547 183.164 31.1328ZM205.172 40.7422C205.172 39.7422 205.516 38.9062 206.203 38.2344C206.906 37.5625 207.836 37.2266 208.992 37.2266C210.148 37.2266 211.07 37.5625 211.758 38.2344C212.461 38.9062 212.812 39.7422 212.812 40.7422C212.812 41.7422 212.461 42.5781 211.758 43.25C211.07 43.9219 210.148 44.2578 208.992 44.2578C207.836 44.2578 206.906 43.9219 206.203 43.25C205.516 42.5781 205.172 41.7422 205.172 40.7422Z" fill="#2C2C2C"/>
<circle cx="102" cy="12" r="4" fill="#5B4897"/>
<circle cx="141.5" cy="12" r="4" fill="#E9454E"/>
</svg>
